<?xml version="1.0" encoding="UTF-8"?>
<!DOCTYPE svg PUBLIC "-//W3C//DTD SVG 1.1//EN" "http://www.w3.org/Graphics/SVG/1.1/DTD/svg11.dtd">
<!-- Creator: CorelDRAW 2018 (64 Bit) -->
<svg xmlns="http://www.w3.org/2000/svg" xml:space="preserve" width="10.0066mm" height="11.4362mm" version="1.1" style="shape-rendering:geometricPrecision; text-rendering:geometricPrecision; image-rendering:optimizeQuality; fill-rule:evenodd; clip-rule:evenodd"
viewBox="0 0 1156.63 1321.88"
 xmlns:xlink="http://www.w3.org/1999/xlink">
 <defs>
  <style type="text/css">
   <![CDATA[
    .fil0 {fill:#D9534F}
   ]]>
  </style>
 </defs>
 <g id="Capa_x0020_1">
  <metadata id="CorelCorpID_0Corel-Layer"/>
  <path id="trash-svgrepo-com_x0028_3_x0029_.svg" class="fil0" d="M1115.32 82.62l-309.81 0 -24.27 -48.28c-10.47,-21.04 -31.96,-34.34 -55.46,-34.34 -0.01,0 -0.05,0 -0.05,0l-295.09 0c-0.08,0 -0.16,0 -0.24,0 -23.38,0 -44.73,13.34 -55.01,34.34l-24.27 48.28 -309.81 0c-22.82,0 -41.31,18.49 -41.31,41.31l0 82.61c0,22.82 18.49,41.31 41.31,41.31l1074.01 0c22.82,0 41.31,-18.49 41.31,-41.31l0 -82.61c0,-22.82 -18.49,-41.31 -41.31,-41.31l0 0zm-977.97 1123.07c4.08,65.28 58.24,116.19 123.67,116.19l634.6 0c65.42,0 119.59,-50.9 123.67,-116.19l54.73 -875.21 -991.4 0 54.74 875.21z"/>
 </g>
</svg>
