<?xml version="1.0" encoding="UTF-8"?>
<!DOCTYPE svg PUBLIC "-//W3C//DTD SVG 1.1//EN" "http://www.w3.org/Graphics/SVG/1.1/DTD/svg11.dtd">
<!-- Creator: CorelDRAW 2018 (64 Bit) -->
<svg xmlns="http://www.w3.org/2000/svg" xml:space="preserve" width="11.8534mm" height="11.8534mm" version="1.1" style="shape-rendering:geometricPrecision; text-rendering:geometricPrecision; image-rendering:optimizeQuality; fill-rule:evenodd; clip-rule:evenodd"
viewBox="0 0 274.1 274.1"
 xmlns:xlink="http://www.w3.org/1999/xlink">
 <defs>
  <style type="text/css">
   <![CDATA[
    .fil0 {fill:#17A2B8}
   ]]>
  </style>
 </defs>
 <g id="Capa_x0020_1">
  <metadata id="CorelCorpID_0Corel-Layer"/>
  <g id="pen-svgrepo-com.svg">
   <path class="fil0" d="M274.1 19.31c0,-5.16 -2.01,-10.01 -5.66,-13.65 -3.65,-3.65 -8.5,-5.66 -13.65,-5.66 -4.89,0 -9.49,1.82 -13.06,5.12 -4.08,-1.3 -8.38,-1.98 -12.79,-1.98 -11.22,0 -21.78,4.37 -29.72,12.31l-12.16 12.16c-0.12,0.11 -0.24,0.21 -0.35,0.32l-161.12 161.12c-2.99,2.99 -6.32,8.74 -7.43,12.81l-17.85 65.47c-0.55,2.02 -0.33,3.82 0.64,5.08 0.83,1.1 2.17,1.7 3.77,1.7 0.65,0 1.35,-0.1 2.07,-0.3l65.47 -17.85c4.08,-1.11 9.83,-4.45 12.81,-7.44l161.12 -161.12c0.11,-0.12 0.22,-0.24 0.32,-0.35l12.16 -12.16c11.47,-11.47 14.9,-27.98 10.3,-42.48 3.31,-3.58 5.14,-8.19 5.14,-13.09z"/>
   <g>
   </g>
   <g>
   </g>
   <g>
   </g>
   <g>
   </g>
   <g>
   </g>
   <g>
   </g>
   <g>
   </g>
   <g>
   </g>
   <g>
   </g>
   <g>
   </g>
   <g>
   </g>
   <g>
   </g>
   <g>
   </g>
   <g>
   </g>
   <g>
   </g>
  </g>
 </g>
</svg>
