<?xml version="1.0" encoding="UTF-8"?>
<!DOCTYPE svg PUBLIC "-//W3C//DTD SVG 1.1//EN" "http://www.w3.org/Graphics/SVG/1.1/DTD/svg11.dtd">
<!-- Creator: CorelDRAW 2018 (64 Bit) -->
<svg xmlns="http://www.w3.org/2000/svg" xml:space="preserve" width="15.6632mm" height="15.6632mm" version="1.1" style="shape-rendering:geometricPrecision; text-rendering:geometricPrecision; image-rendering:optimizeQuality; fill-rule:evenodd; clip-rule:evenodd"
viewBox="0 0 476.53 476.53"
 xmlns:xlink="http://www.w3.org/1999/xlink">
 <defs>
  <style type="text/css">
   <![CDATA[
    .fil0 {fill:#FEFEFE}
   ]]>
  </style>
 </defs>
 <g id="Capa_x0020_1">
  <metadata id="CorelCorpID_0Corel-Layer"/>
  <path class="fil0" d="M238.27 0c131.59,0 238.27,106.67 238.27,238.27 0,131.59 -106.67,238.27 -238.27,238.27 -131.59,0 -238.27,-106.67 -238.27,-238.27 0,-131.59 106.67,-238.27 238.27,-238.27zm118.36 320.7c-11.37,-33.45 -41.41,-56.45 -76.09,-59.59 -11.61,12.3 -25.99,20.1 -42.27,20.1 -16.27,0 -30.65,-7.8 -42.26,-20.1 -34.7,3.13 -64.74,26.14 -76.11,59.59l-6.29 18.49c-1.8,5.32 -0.94,11.19 2.34,15.76 3.28,4.57 8.55,7.28 14.17,7.28l216.28 0c5.63,0 10.9,-2.71 14.17,-7.28 3.26,-4.56 4.14,-10.43 2.33,-15.76l-6.28 -18.5zm-174.75 -141.83c0,41.49 25.26,86.01 56.39,86.01 31.15,0 56.4,-44.52 56.4,-86.01 0,-86 -112.8,-86.17 -112.8,0z"/>
 </g>
</svg>
